<svg xmlns="http://www.w3.org/2000/svg" width="11.866" height="9.872" viewBox="0 0 11.866 9.872">
  <g id="Group_5113" data-name="Group 5113" transform="translate(29 -9)">
    <path id="Path_15626" data-name="Path 15626" d="M11.676,45.821,7.391,41.535a.651.651,0,0,0-.918,0l-.389.389a.645.645,0,0,0-.19.459.657.657,0,0,0,.19.465l2.5,2.505H.641A.634.634,0,0,0,0,45.992v.55a.658.658,0,0,0,.641.667H8.612L6.084,49.729a.643.643,0,0,0,0,.912l.389.388a.651.651,0,0,0,.918,0l4.285-4.285a.655.655,0,0,0,0-.922Z" transform="translate(-29 -32.346)" fill="#ff7600"/>
  </g>
</svg>
