<svg id="user_2_" data-name="user (2)" xmlns="http://www.w3.org/2000/svg" width="13.04" height="14.837" viewBox="0 0 13.04 14.837">
  <g id="Group_5086" data-name="Group 5086" transform="translate(2.608)">
    <g id="Group_5085" data-name="Group 5085">
      <path id="Path_15619" data-name="Path 15619" d="M124.912,0a3.912,3.912,0,1,0,3.912,3.912A3.916,3.916,0,0,0,124.912,0Z" transform="translate(-121)" fill="#ff7600"/>
    </g>
  </g>
  <g id="Group_5088" data-name="Group 5088" transform="translate(0 8.693)">
    <g id="Group_5087" data-name="Group 5087">
      <path id="Path_15620" data-name="Path 15620" d="M42.387,301.686a5.577,5.577,0,0,0-4-1.686H36.651a5.577,5.577,0,0,0-4,1.686A5.7,5.7,0,0,0,31,305.709a.435.435,0,0,0,.435.435H43.605a.435.435,0,0,0,.435-.435A5.7,5.7,0,0,0,42.387,301.686Z" transform="translate(-31 -300)" fill="#ff7600"/>
    </g>
  </g>
</svg>
